<?xml version="1.0" encoding="UTF-8" standalone="no"?>
<!-- Created with Inkscape (http://www.inkscape.org/) -->

<svg
   xmlns:dc="http://purl.org/dc/elements/1.1/"
   xmlns:cc="http://creativecommons.org/ns#"
   xmlns:rdf="http://www.w3.org/1999/02/22-rdf-syntax-ns#"
   xmlns:svg="http://www.w3.org/2000/svg"
   xmlns="http://www.w3.org/2000/svg"
   xmlns:sodipodi="http://sodipodi.sourceforge.net/DTD/sodipodi-0.dtd"
   xmlns:inkscape="http://www.inkscape.org/namespaces/inkscape"
   width="100mm"
   height="94mm"
   viewBox="0 0 354.33071 333.07087"
   id="svg2"
   version="1.1"
   inkscape:version="0.91 r13725"
   sodipodi:docname="pzhs-logo.svg">
  <defs
     id="defs4" />
  <sodipodi:namedview
     id="base"
     pagecolor="#ffffff"
     bordercolor="#666666"
     borderopacity="1.0"
     inkscape:pageopacity="0.0"
     inkscape:pageshadow="2"
     inkscape:zoom="1.28"
     inkscape:cx="309.89961"
     inkscape:cy="111.17535"
     inkscape:document-units="px"
     inkscape:current-layer="layer1"
     showgrid="false"
     showguides="true"
     inkscape:guide-bbox="true"
     inkscape:window-width="1920"
     inkscape:window-height="1035"
     inkscape:window-x="0"
     inkscape:window-y="24"
     inkscape:window-maximized="1" />
  <metadata
     id="metadata7">
    <rdf:RDF>
      <cc:Work
         rdf:about="">
        <dc:format>image/svg+xml</dc:format>
        <dc:type
           rdf:resource="http://purl.org/dc/dcmitype/StillImage" />
        <dc:title></dc:title>
      </cc:Work>
    </rdf:RDF>
  </metadata>
  <g
     inkscape:label="Layer 1"
     inkscape:groupmode="layer"
     id="layer1"
     transform="translate(0,-719.29134)">
    <g
       id="g3405"
       transform="translate(760,-54.285714)" />
    <g
       id="g3608"
       transform="matrix(0.57291,0,0,0.57240558,-791.69476,294.34303)">
      <path
         sodipodi:nodetypes="sssscccsssscssssssscssss"
         style="fill:#c2c3c3"
         d="m 1646.427,1323.3669 c -43.2675,-2.5428 -84.4074,-11.1336 -110.6765,-23.1116 -9.2965,-4.2386 -22.3301,-12.8344 -29.3881,-19.3814 -10.8707,-10.0838 -15.9566,-20.6609 -15.9566,-33.184 0,-12.9967 4.6371,-35.1188 13.9875,-46.4217 5.0469,-6.1007 13.0386,-13.3835 13.8336,-12.6064 -10.7355,21.4643 -8.0624,34.295 -2.6385,47.4017 8.7619,19.3641 27.7571,31.1537 60.3206,37.4392 34.7393,6.7054 62.1909,8.1164 108.5961,5.582 31.709,-1.7317 64.9249,-5.9812 88.3179,-11.2984 51.1398,-11.6244 79.1799,-20.1102 106.3136,-32.1741 5.5755,-2.4788 12.0348,-5.2478 14.3545,-6.1536 6.4985,-2.5371 24.5904,-13.4203 32.1936,-19.366 16.2153,-12.6802 24.3287,-23.7882 27.4901,-37.6359 1.7191,-7.5299 1.8109,-9.0615 0.8696,-14.5149 -1.7727,-10.2725 -6.7343,-18.7659 -16.4224,-28.1131 -4.5431,-4.3831 -7.8442,-7.969 -7.3359,-7.969 1.4578,0 15.91,5.5989 21.1918,8.2098 18.6581,9.2238 31.5616,23.1911 36.6222,39.6418 1.0829,3.5198 1.5646,7.8393 1.5332,13.7475 -0.039,7.5148 -0.434,9.7162 -3.0864,17.2307 -3.6521,10.3473 -11.057,22.9091 -18.0843,30.6781 -37.3631,41.3073 -112.3314,74.1124 -197.4386,86.3965 -40.2824,5.8141 -86.0124,7.8706 -124.597,5.6028 z"
         id="path3502-3"
         inkscape:connector-curvature="0" />
      <path
         sodipodi:nodetypes="ccccc"
         inkscape:connector-curvature="0"
         id="rect3517"
         d="m 1786.5489,873.03097 57.9378,0 0,94.35665 -57.9378,-35.4742 z"
         style="fill:#c2c3c3;fill-rule:evenodd;stroke:none;stroke-width:0.97259742px;stroke-linecap:butt;stroke-linejoin:miter;stroke-opacity:1" />
      <path
         sodipodi:nodetypes="cssscsssscsssssscc"
         style="fill:#70bb31"
         d="m 1581.4441,974.34486 c -0.2707,-0.27074 -12.7804,-0.65801 -26.8756,-0.79902 -21.5444,-0.21553 -27.2708,-0.57402 -35.9402,-2.25001 -32.5659,-6.29576 -56.9392,-17.32449 -83.1258,-37.6139 -7.557,-5.85512 -51.5867,-49.37649 -53.4213,-52.80448 -0.7516,-1.40425 0.4406,-2.99979 7.0134,-9.38619 13.2664,-12.89019 29.65,-21.28793 49.8993,-25.57684 14.3605,-3.04164 34.9379,-3.19186 49.6013,-0.36212 46.1353,8.90318 84.4905,39.5188 101.9961,81.41449 2.9744,7.11845 9.0858,28.02029 9.1234,31.20326 0,0.34271 -1.4916,-0.70398 -3.3237,-2.326 -5.9271,-5.24737 -26.2595,-19.66404 -38.5309,-27.3202 -21.7231,-13.5531 -43.5671,-23.46293 -62.2006,-28.2182 -8.7268,-2.2271 -18.75,-3.04157 -18.75,-1.52361 0,0.42151 5.5615,2.61748 12.3589,4.87995 25.4414,8.46808 52.8181,24.47325 78.5786,45.93935 19.0841,15.90257 21.7749,18.53309 19.6483,19.20804 z"
         id="path3504"
         inkscape:connector-curvature="0" />
      <path
         id="path3547"
         d="m 1720.6641,933.53125 -167.8164,148.16215 0.4003,175.7363 c 2.2981,0.5421 4.6595,1.0571 7.0997,1.5391 36.9473,7.2967 66.1434,8.8321 115.498,6.0742 2.6826,-0.1499 5.3755,-0.3221 8.0723,-0.5059 0.024,-2.6149 0.1797,-20.5451 0.1797,-43.9375 0,-43.9944 0.022,-44.5217 2.0468,-48.125 1.305,-2.3219 3.4533,-4.3226 5.9219,-5.5176 3.6356,-1.76 5.7879,-1.875 35.0723,-1.875 34.8963,0 34.7001,-0.034 38.4316,6.6055 1.9063,3.3918 1.9649,4.6391 1.9649,42.9199 0,19.1749 0.2478,34.3408 0.023,38.6367 0.7382,-0.1656 1.4977,-0.3284 2.2187,-0.4961 54.3901,-12.6495 84.2123,-21.8842 113.0704,-35.0117 5.9297,-2.6974 12.7986,-5.7098 15.2656,-6.6953 0.1981,-0.079 0.4404,-0.1914 0.6582,-0.2851 l 0.014,-128.8047 -178.1211,-148.41995 z"
         style="fill:#c2c3c3"
         inkscape:connector-curvature="0" />
      <path
         sodipodi:nodetypes="ssssccsssssscssssssscssssccssssssssscsssccsscscsssccsssssssscsscsssccscc"
         style="fill:#4b842f"
         d="m 1635.3375,1313.2292 c -46.0174,-2.7671 -89.7722,-12.1155 -117.7108,-25.1494 -9.8872,-4.6126 -23.7493,-13.9665 -31.2558,-21.0908 -11.5616,-10.9729 -16.9709,-22.4826 -16.9709,-36.11 0,-14.1429 4.9319,-27.2567 14.8766,-39.5563 5.3676,-6.6389 13.8672,-14.5637 14.7128,-13.718 0.2242,0.2241 -0.6102,2.9121 -1.8541,5.9733 -5.0038,12.3144 -5.3445,24.7171 -0.952,34.6495 9.3188,21.0713 29.5213,33.9007 64.1542,40.7404 36.9473,7.2967 66.1437,8.8322 115.4983,6.0743 33.7242,-1.8845 69.0514,-6.5086 93.9312,-12.2948 54.3901,-12.6495 84.2124,-21.8836 113.0705,-35.0111 5.9297,-2.6974 12.7998,-5.7107 15.2668,-6.6962 6.9114,-2.7608 26.1533,-14.6038 34.2397,-21.0737 17.2459,-13.7985 25.8751,-25.886 29.2374,-40.955 1.8283,-8.1936 1.9259,-9.8603 0.9249,-15.7947 -1.8854,-11.1782 -7.1624,-20.4206 -17.4664,-30.5921 -4.8317,-4.7695 -8.3427,-8.6718 -7.8021,-8.6718 1.5507,0 16.9213,6.0926 22.5387,8.9339 19.8441,10.0371 33.5676,25.236 38.9499,43.1374 1.1516,3.8301 1.6639,8.5306 1.6307,14.9599 -0.042,8.1773 -0.4617,10.5728 -3.2826,18.75 -3.8842,11.2598 -11.7598,24.9293 -19.2336,33.3833 -39.7378,44.9499 -119.471,80.6478 -209.9873,94.015 -42.8427,6.3269 -91.4792,8.5646 -132.5161,6.0969 z m 300.4566,-237.7807 c -9.0287,-3.2317 -15.2609,-7.8905 -47.3316,-35.3819 -4.8984,-4.1991 -25.3593,-21.5084 -45.4687,-38.4652 -20.1094,-16.95692 -40.7995,-34.43892 -45.9781,-38.84902 -5.1785,-4.4101 -13.4051,-11.3898 -18.2812,-15.5104 -4.8761,-4.1205 -19.9718,-16.8822 -33.546,-28.3593 -13.5742,-11.4771 -25.3038,-20.8674 -26.0659,-20.8674 -0.762,0 -13.9137,11.2668 -29.2259,25.0374 -43.1305,38.7881 -52.8304,47.4968 -85.5125,76.7747 -16.7491,15.00462 -39.8118,35.67642 -51.2504,45.93762 -21.2999,19.1072 -26.7953,23.1611 -37.0661,27.3433 -7.4689,3.0413 -18.1714,3.3978 -23.2302,0.774 -3.8075,-1.9749 -9.375,-7.0221 -9.375,-8.499 0,-0.5578 7.2774,-7.5939 16.1719,-15.6357 62.9054,-56.87482 75.9701,-69.27152 79.0723,-72.04482 l 13.0371,-11.655 13.6399,-12.0169 c 5.1449,-3.5756 4.7646,-6.0331 -0.5235,-18.9779 -2.3156,-5.6683 -4.2011,-10.9417 -4.1901,-11.7187 0.011,-0.7771 1.928,-4.3583 4.2598,-7.9583 11.6307,-17.9557 23.9318,-46.591 27.5134,-64.0475 1.2554,-6.119 1.3313,-12.6792 0.1381,-11.9418 -0.4846,0.2995 -2.3968,5.1882 -4.2492,10.8637 -4.3905,13.4518 -9.7266,25.4799 -16.1991,36.5149 -7.9157,13.4954 -16.1747,25.4673 -17.3084,25.0894 -0.5569,-0.1856 -3.4453,-4.2036 -6.4189,-8.9288 -6.1341,-9.7479 -18.0628,-25.5816 -22.3717,-29.6954 -3.8692,-3.6941 -3.7302,-5.9054 1.3156,-20.9283 6.6009,-19.6527 16.3904,-37.58287 30.4201,-55.71681 6.7652,-8.74431 52.0086,-54.19514 53.9478,-54.19514 1.8918,0 17.4099,16.87388 20.9611,22.79251 14.3734,23.95592 19.3623,56.12994 13.3092,85.83304 -2.0606,10.1117 -7.2782,25.974 -10.8845,33.0908 -4.8118,9.4955 -2.166,8.6585 11.4534,-3.6234 6.1185,-5.5176 15.913,-14.3935 21.7656,-19.7241 9.2472,-8.4226 10.8436,-9.534 12.1875,-8.4855 1.644,1.2827 20.0657,17.4305 47.0297,41.2246 9.0315,7.9697 17.1013,14.8831 17.9329,15.3631 2.1668,1.2506 52.948,45.9403 57.99,51.0338 2.3204,2.344 12.6171,11.6338 22.8816,20.6441 10.2645,9.0103 24.6452,21.65582 31.957,28.10112 7.3118,6.4453 23.1714,20.4119 35.2435,31.0369 12.072,10.6249 23.7949,20.9713 26.0507,22.9919 l 4.1016,3.6738 -2.5789,3.0648 c -5.6139,6.6718 -16.3837,9.2408 -25.324,6.0408 z"
         id="path3502"
         inkscape:connector-curvature="0" />
    </g>
  </g>
</svg>
