<?xml version="1.0" encoding="UTF-8" standalone="no"?>
<!-- Created with Inkscape (http://www.inkscape.org/) -->

<svg
   xmlns:dc="http://purl.org/dc/elements/1.1/"
   xmlns:cc="http://creativecommons.org/ns#"
   xmlns:rdf="http://www.w3.org/1999/02/22-rdf-syntax-ns#"
   xmlns:svg="http://www.w3.org/2000/svg"
   xmlns="http://www.w3.org/2000/svg"
   xmlns:sodipodi="http://sodipodi.sourceforge.net/DTD/sodipodi-0.dtd"
   xmlns:inkscape="http://www.inkscape.org/namespaces/inkscape"
   width="550"
   height="96"
   viewBox="0 0 550 96"
   id="svg3345"
   version="1.1"
   inkscape:version="0.91 r13725"
   sodipodi:docname="semantic-machines-logo-long.svg">
  <defs
     id="defs3347" />
  <sodipodi:namedview
     id="base"
     pagecolor="#ffffff"
     bordercolor="#666666"
     borderopacity="1.0"
     inkscape:pageopacity="0.0"
     inkscape:pageshadow="2"
     inkscape:zoom="1.4"
     inkscape:cx="256.28853"
     inkscape:cy="-70.45728"
     inkscape:document-units="px"
     inkscape:current-layer="layer1"
     showgrid="false"
     units="px"
     inkscape:window-width="1920"
     inkscape:window-height="1035"
     inkscape:window-x="0"
     inkscape:window-y="24"
     inkscape:window-maximized="1" />
  <metadata
     id="metadata3350">
    <rdf:RDF>
      <cc:Work
         rdf:about="">
        <dc:format>image/svg+xml</dc:format>
        <dc:type
           rdf:resource="http://purl.org/dc/dcmitype/StillImage" />
        <dc:title />
      </cc:Work>
    </rdf:RDF>
  </metadata>
  <g
     inkscape:label="Layer 1"
     inkscape:groupmode="layer"
     id="layer1"
     transform="translate(0,-956.36216)">
    <path
       inkscape:connector-curvature="0"
       id="path4290-7-7-7-0-0-3-3"
       style="font-style:normal;font-variant:normal;font-weight:normal;font-stretch:normal;font-size:206.80056763px;line-height:83.00001025%;font-family:'Droid Sans';-inkscape-font-specification:'Droid Sans Bold';text-align:end;letter-spacing:-11.29897022px;word-spacing:0px;text-anchor:end;fill:#333333;fill-opacity:1;stroke:none"
       d="m 110.54216,990.97836 c -1.66357,0 -3.17167,0.31872 -4.52427,0.95615 -1.35262,0.62195 -2.51088,1.52359 -3.47481,2.70538 -0.9484,1.18155 -1.68689,2.6197 -2.2155,4.3142 -0.513062,1.69471 -0.769604,3.60701 -0.769581,5.73711 -2.3e-5,2.192 0.22541,4.1433 0.676301,5.8535 0.46641,1.6945 1.15825,3.125 2.07556,4.2909 0.91728,1.166 2.06002,2.0522 3.42818,2.6587 1.36814,0.6062 2.96953,0.9095 4.80412,0.9095 1.38369,0 2.69742,-0.1321 3.94121,-0.3966 1.24378,-0.2796 2.47201,-0.5984 3.68472,-0.9561 l 0,3.7779 c -0.60637,0.2333 -1.21271,0.4432 -1.81903,0.6298 -0.60637,0.1709 -1.2438,0.3109 -1.91232,0.4197 -0.65302,0.109 -1.3604,0.1866 -2.1222,0.2332 -0.7463,0.062 -1.57808,0.093 -2.49533,0.093 -2.54976,0 -4.75749,-0.4198 -6.62316,-1.2594 -1.86567,-0.8395 -3.412641,-2.0289 -4.640848,-3.5679 -1.212711,-1.5393 -2.114443,-3.3893 -2.705243,-5.5505 -0.590801,-2.1611 -0.886189,-4.5553 -0.886189,-7.1827 0,-2.5809 0.334258,-4.94397 1.002797,-7.08952 0.684082,-2.14556 1.679096,-3.98787 2.985088,-5.52717 1.321485,-1.53907 2.953965,-2.73633 4.897405,-3.59131 1.9434,-0.85522 4.17442,-1.28272 6.6931,-1.28272 1.67908,0 3.28043,0.17114 4.8041,0.51295 1.52359,0.34204 2.89954,0.83974 4.1278,1.49265 l -1.81904,3.63797 c -0.97949,-0.49748 -2.04448,-0.92497 -3.19495,-1.28248 -1.15054,-0.35775 -2.45651,-0.53651 -3.91791,-0.53651" />
    <path
       inkscape:connector-curvature="0"
       id="path4292-3-8-9-6-7-9-4"
       style="font-style:normal;font-variant:normal;font-weight:normal;font-stretch:normal;font-size:206.80056763px;line-height:83.00001025%;font-family:'Droid Sans';-inkscape-font-specification:'Droid Sans Bold';text-align:end;letter-spacing:-11.29897022px;word-spacing:0px;text-anchor:end;fill:#333333;fill-opacity:1;stroke:none"
       d="m 150.02574,1021.7387 -3.75467,0 0,-20.919 c -0.0933,0.3266 -0.20991,0.7153 -0.3498,1.1661 -0.12442,0.4354 -0.26433,0.8862 -0.41978,1.3527 -0.1555,0.4508 -0.3032,0.8862 -0.44311,1.3058 -0.13993,0.4199 -0.26432,0.7698 -0.37313,1.0495 l -6.15671,16.0449 -3.14833,0 -6.18002,-16.0449 c -0.0777,-0.2021 -0.18659,-0.4897 -0.3265,-0.8629 -0.12439,-0.3887 -0.2643,-0.8083 -0.41978,-1.2591 -0.15548,-0.4666 -0.30317,-0.9407 -0.44308,-1.4227 -0.13994,-0.482 -0.26433,-0.925 -0.37315,-1.3294 l 0,20.919 -3.77797,0 0,-25.60639 5.15392,0 6.22667,16.25469 c 0.20208,0.5286 0.38867,1.0571 0.55969,1.5857 0.17102,0.5132 0.32648,1.0028 0.46643,1.4693 0.15546,0.4663 0.28761,0.8941 0.39646,1.2828 0.12434,0.3886 0.21762,0.7071 0.27984,0.9561 0.0933,-0.2644 0.19433,-0.5832 0.30317,-0.9561 0.10881,-0.3887 0.2332,-0.8086 0.37313,-1.2594 0.15546,-0.4666 0.31872,-0.9486 0.48974,-1.446 0.17102,-0.513 0.35758,-1.0262 0.55971,-1.5391 l 6.29663,-16.34799 5.06064,0 0,25.60639" />
    <path
       inkscape:connector-curvature="0"
       id="path4294-8-3-5-6-3-2-4"
       style="font-style:normal;font-variant:normal;font-weight:normal;font-stretch:normal;font-size:206.80056763px;line-height:83.00001025%;font-family:'Droid Sans';-inkscape-font-specification:'Droid Sans Bold';text-align:end;letter-spacing:-11.29897022px;word-spacing:0px;text-anchor:end;fill:#333333;fill-opacity:1;stroke:none"
       d="m 160.4372,1006.6501 5.50372,0 c 3.29602,0 5.73694,0.6063 7.32278,1.819 1.58579,1.2127 2.3787,3.0239 2.37872,5.4336 -2e-5,1.1973 -0.18659,2.2777 -0.55969,3.2417 -0.35761,0.964 -0.93287,1.788 -1.72575,2.4721 -0.77739,0.6841 -1.78797,1.2127 -3.03172,1.5857 -1.22825,0.3576 -2.72078,0.5365 -4.47762,0.5365 l -9.65484,0 0,-25.60639 4.2444,0 0,10.51779 m 23.41418,15.0886 -4.2444,0 0,-25.60639 4.2444,0 0,25.60639 m -23.41418,-11.5206 0,8.0224 5.10727,0 c 0.87065,0 1.66355,-0.062 2.37874,-0.1866 0.73069,-0.14 1.3526,-0.3654 1.86566,-0.6762 0.52859,-0.3266 0.94061,-0.7463 1.23602,-1.2594 0.29536,-0.513 0.44308,-1.1428 0.4431,-1.889 -2e-5,-0.7617 -0.13217,-1.3991 -0.39647,-1.9123 -0.24876,-0.5129 -0.62967,-0.9249 -1.14271,-1.236 -0.49754,-0.3109 -1.11943,-0.5287 -1.86568,-0.6529 -0.74628,-0.14 -1.61693,-0.21 -2.61194,-0.21 l -5.01399,0" />
    <path
       inkscape:connector-curvature="0"
       id="path4296-8-5-9-9-0-1-8"
       style="font-style:normal;font-variant:normal;font-weight:normal;font-stretch:normal;font-size:206.80056763px;line-height:83.00001025%;font-family:'Droid Sans';-inkscape-font-specification:'Droid Sans Bold';text-align:end;letter-spacing:-11.29897022px;word-spacing:0px;text-anchor:end;fill:#333333;fill-opacity:1;stroke:none"
       d="m 200.08381,1022.205 c -1.5703,0 -3.03951,-0.2409 -4.40767,-0.7228 -1.36816,-0.4975 -2.55753,-1.2749 -3.56808,-2.3322 -1.01058,-1.0728 -1.80349,-2.4331 -2.37875,-4.0812 -0.57523,-1.6635 -0.86286,-3.6613 -0.86286,-5.9934 0,-2.441 0.29539,-4.5087 0.88619,-6.2034 0.5908,-1.7102 1.39925,-3.09387 2.42537,-4.15118 1.04167,-1.07254 2.25436,-1.84993 3.63806,-2.33193 1.38369,-0.48199 2.86846,-0.72288 4.4543,-0.72288 1.21266,0 2.39426,0.13211 3.54478,0.39632 1.16601,0.26444 2.13772,0.59077 2.91511,0.97947 l -1.25934,3.5913 c -0.35761,-0.1554 -0.75406,-0.303 -1.18936,-0.443 -0.43535,-0.1554 -0.88621,-0.28749 -1.35262,-0.3965 -0.46644,-0.12425 -0.92506,-0.21756 -1.37593,-0.27968 -0.45089,-0.0778 -0.87843,-0.11663 -1.28264,-0.11663 -2.44094,0 -4.2211,0.78501 -5.34048,2.35521 -1.11941,1.5548 -1.67912,3.9803 -1.67912,7.2762 0,3.2805 0.55971,5.6826 1.67912,7.2062 1.13492,1.5081 2.85291,2.2622 5.15392,2.2622 1.25929,0 2.39424,-0.14 3.40484,-0.4199 1.0261,-0.2954 1.95894,-0.6374 2.7985,-1.0261 l 0,3.7781 c -0.83956,0.4509 -1.74131,0.7929 -2.70522,1.0262 -0.9484,0.233 -2.11444,0.3496 -3.49812,0.3496" />
    <path
       inkscape:connector-curvature="0"
       id="path4298-9-2-2-9-0-3-4"
       style="font-style:normal;font-variant:normal;font-weight:normal;font-stretch:normal;font-size:206.80056763px;line-height:83.00001025%;font-family:'Droid Sans';-inkscape-font-specification:'Droid Sans Bold';text-align:end;letter-spacing:-11.29897022px;word-spacing:0px;text-anchor:end;fill:#333333;fill-opacity:1;stroke:none"
       d="m 232.43694,1021.7387 -4.2444,0 0,-22.01508 -6.01678,0 c -0.31096,4.02688 -0.7152,7.45488 -1.21269,10.28458 -0.49752,2.8296 -1.11941,5.1385 -1.86566,6.9263 -0.73074,1.788 -1.60138,3.094 -2.61194,3.9178 -1.01058,0.8086 -2.1844,1.2128 -3.52145,1.2128 -0.43535,0 -0.84735,-0.023 -1.23602,-0.07 -0.37312,-0.047 -0.68408,-0.1166 -0.93284,-0.2097 l 0,-3.0551 c 0.35759,0.093 0.74628,0.1398 1.16606,0.1398 0.85508,0 1.62468,-0.4508 2.30877,-1.3525 0.6996,-0.9173 1.31372,-2.3088 1.84233,-4.1745 0.54415,-1.8811 1.01058,-4.2444 1.39925,-7.0895 0.40424,-2.8606 0.74628,-6.2344 1.02612,-10.12129 l 13.89925,0 0,25.60639" />
    <path
       inkscape:connector-curvature="0"
       id="path4300-4-7-0-2-6-8-7"
       style="font-style:normal;font-variant:normal;font-weight:normal;font-stretch:normal;font-size:206.80056763px;line-height:83.00001025%;font-family:'Droid Sans';-inkscape-font-specification:'Droid Sans Bold';text-align:end;letter-spacing:-11.29897022px;word-spacing:0px;text-anchor:end;fill:#333333;fill-opacity:1;stroke:none"
       d="m 260.20869,1008.8888 c -2e-5,2.13 -0.26432,4.0268 -0.7929,5.6904 -0.51309,1.6478 -1.25934,3.0393 -2.23882,4.1745 -0.96395,1.1192 -2.13776,1.9744 -3.52145,2.5652 -1.38371,0.5907 -2.93843,0.8861 -4.66416,0.8861 -1.60138,0 -3.07837,-0.2954 -4.43097,-0.8861 -1.35262,-0.5908 -2.52644,-1.446 -3.52145,-2.5652 -0.9795,-1.1352 -1.74908,-2.5267 -2.30877,-4.1745 -0.54417,-1.6636 -0.81623,-3.5604 -0.81623,-5.6904 0,-2.1144 0.25652,-3.9879 0.76958,-5.6203 0.5286,-1.6481 1.27488,-3.0317 2.23881,-4.15113 0.96393,-1.1349 2.13775,-1.99012 3.52145,-2.56519 1.39925,-0.59078 2.96174,-0.88617 4.68749,-0.8864 1.60136,0 3.07835,0.29562 4.43097,0.8864 1.3526,0.57507 2.51863,1.43029 3.49815,2.56519 0.99499,1.11943 1.76457,2.50303 2.30877,4.15113 0.55966,1.6324 0.83951,3.5059 0.83953,5.6203 m -17.91044,0 c 0,3.2495 0.52861,5.698 1.58582,7.3461 1.07275,1.6324 2.80628,2.4488 5.20057,2.4488 2.39427,0 4.11223,-0.8164 5.15392,-2.4488 1.05719,-1.6481 1.58579,-4.0966 1.58582,-7.3461 -3e-5,-3.2493 -0.53641,-5.6748 -1.60914,-7.276 -1.05724,-1.61688 -2.78299,-2.42545 -5.17725,-2.42545 -2.39429,0 -4.12004,0.80857 -5.17722,2.42545 -1.04169,1.6012 -1.56252,4.0267 -1.56252,7.276" />
    <path
       inkscape:connector-curvature="0"
       id="path4302-0-7-8-9-7-8-0"
       style="font-style:normal;font-variant:normal;font-weight:normal;font-stretch:normal;font-size:206.80056763px;line-height:83.00001025%;font-family:'Droid Sans';-inkscape-font-specification:'Droid Sans Bold';text-align:end;letter-spacing:-11.29897022px;word-spacing:0px;text-anchor:end;fill:#333333;fill-opacity:1;stroke:none"
       d="m 285.46654,1002.5923 c -2e-5,1.6169 -0.48197,2.8839 -1.44588,3.8012 -0.9484,0.9017 -2.25437,1.4925 -3.9179,1.7724 l 0,0.1633 c 0.87062,0.1087 1.67907,0.3032 2.42537,0.5829 0.76178,0.2799 1.41477,0.6607 1.95894,1.1427 0.55967,0.4666 0.99499,1.0573 1.30597,1.7724 0.32648,0.6998 0.48971,1.5393 0.48974,2.5187 -3e-5,1.0416 -0.18659,2.0135 -0.55969,2.9151 -0.35761,0.9019 -0.93287,1.6869 -1.72575,2.3555 -0.77739,0.6684 -1.78797,1.1892 -3.03172,1.5624 -1.22825,0.3732 -2.72079,0.5598 -4.47762,0.5598 l -10.61099,0 0,-25.60639 10.56436,0 c 1.2904,0 2.48755,0.10877 3.59141,0.32656 1.10384,0.21756 2.05222,0.57508 2.84515,1.07278 0.80843,0.49747 1.4381,1.16608 1.88899,2.00559 0.46641,0.82406 0.6996,1.84236 0.69962,3.05506 m -3.35819,11.4504 c -2e-5,-1.4303 -0.5053,-2.4252 -1.51586,-2.9851 -1.0106,-0.5596 -2.51089,-0.8395 -4.50095,-0.8395 l -5.97013,0 0,8.0224 6.06344,0 c 0.87062,0 1.66353,-0.07 2.37872,-0.2099 0.73071,-0.14 1.3526,-0.373 1.86566,-0.6996 0.52861,-0.3266 0.9406,-0.7541 1.23601,-1.2827 0.29539,-0.5441 0.44309,-1.2127 0.44311,-2.0056 m -0.69963,-11.0308 c -2e-5,-1.197 -0.42758,-2.0444 -1.28266,-2.5418 -0.83956,-0.49751 -2.09888,-0.74648 -3.77797,-0.74648 l -6.22668,0 0,6.92648 5.50372,0 c 0.96393,0 1.80347,-0.054 2.51866,-0.1633 0.71517,-0.1244 1.31373,-0.3265 1.79571,-0.6064 0.49749,-0.2797 0.86286,-0.6529 1.09607,-1.1195 0.24874,-0.4663 0.37313,-1.0492 0.37315,-1.749" />
    <path
       inkscape:connector-curvature="0"
       id="path4304-5-3-6-4-3-6-6"
       style="font-style:normal;font-variant:normal;font-weight:normal;font-stretch:normal;font-size:206.80056763px;line-height:83.00001025%;font-family:'Droid Sans';-inkscape-font-specification:'Droid Sans Bold';text-align:end;letter-spacing:-11.29897022px;word-spacing:0px;text-anchor:end;fill:#333333;fill-opacity:1;stroke:none"
       d="m 295.9669,1006.6501 5.50375,0 c 3.29599,0 5.73691,0.6063 7.32275,1.819 1.58579,1.2127 2.3787,3.0239 2.37872,5.4336 -2e-5,1.1973 -0.18659,2.2777 -0.55969,3.2417 -0.35761,0.964 -0.93287,1.788 -1.72575,2.4721 -0.77739,0.6841 -1.78795,1.2127 -3.03172,1.5857 -1.22825,0.3576 -2.72078,0.5365 -4.4776,0.5365 l -9.65484,0 0,-25.60639 4.24438,0 0,10.51779 m 23.41418,15.0886 -4.2444,0 0,-25.60639 4.2444,0 0,25.60639 m -23.41418,-11.5206 0,8.0224 5.10729,0 c 0.87062,0 1.66353,-0.062 2.37872,-0.1866 0.73071,-0.14 1.3526,-0.3654 1.86569,-0.6762 0.52858,-0.3266 0.94057,-0.7463 1.23599,-1.2594 0.29539,-0.513 0.44308,-1.1428 0.4431,-1.889 -2e-5,-0.7617 -0.13217,-1.3991 -0.39645,-1.9123 -0.24878,-0.5129 -0.62969,-0.9249 -1.14273,-1.236 -0.49752,-0.3109 -1.11941,-0.5287 -1.86566,-0.6529 -0.7463,-0.14 -1.61695,-0.21 -2.61194,-0.21 l -5.01401,0" />
    <path
       inkscape:connector-curvature="0"
       id="path4306-2-0-6-7-4-5-2"
       style="font-style:normal;font-variant:normal;font-weight:normal;font-stretch:normal;font-size:206.80056763px;line-height:83.00001025%;font-family:'Droid Sans';-inkscape-font-specification:'Droid Sans Bold';text-align:end;letter-spacing:-11.29897022px;word-spacing:0px;text-anchor:end;fill:#333333;fill-opacity:1;stroke:none"
       d="m 335.80471,1022.205 c -1.71023,0 -3.27272,-0.2875 -4.68751,-0.8628 -1.41482,-0.5753 -2.63526,-1.4148 -3.66139,-2.5185 -1.01055,-1.104 -1.7957,-2.4722 -2.35539,-4.1045 -0.55972,-1.6326 -0.83956,-3.4983 -0.83956,-5.5972 0,-2.1144 0.25654,-4.0033 0.7696,-5.6669 0.51304,-1.6635 1.23599,-3.0705 2.16883,-4.2211 0.93282,-1.16608 2.04447,-2.05224 3.33489,-2.6585 1.30595,-0.60648 2.74407,-0.90949 4.31436,-0.90949 1.53917,0 2.92287,0.27969 4.15113,0.83952 1.2282,0.54412 2.26987,1.32151 3.125,2.33193 0.85508,0.99517 1.50805,2.20004 1.95894,3.61484 0.46641,1.3991 0.6996,2.9539 0.69962,4.6641 l 0,2.6354 -16.13803,0 c 0.0777,3.0006 0.70738,5.2082 1.88898,6.6231 1.19712,1.4148 2.96952,2.1222 5.31716,2.1222 0.79291,0 1.52362,-0.039 2.19216,-0.1166 0.68406,-0.078 1.33705,-0.1867 1.95896,-0.3266 0.63741,-0.1554 1.25154,-0.3421 1.84236,-0.5596 0.59075,-0.2333 1.18934,-0.4899 1.7957,-0.7695 l 0,3.7779 c -0.6219,0.2954 -1.23603,0.552 -1.84235,0.7695 -0.59083,0.2178 -1.20493,0.3966 -1.84236,0.5365 -0.62191,0.1397 -1.27488,0.2409 -1.95894,0.303 -0.66856,0.062 -1.39927,0.093 -2.19216,0.093 m -1.04945,-23.01765 c -1.7724,0 -3.17943,0.60648 -4.22108,1.81895 -1.02612,1.2128 -1.6247,2.9775 -1.7957,5.2939 l 11.47387,0 c -2e-5,-1.0573 -0.10884,-2.021 -0.32649,-2.8917 -0.20213,-0.8862 -0.52863,-1.6403 -0.97948,-2.2622 -0.43534,-0.622 -0.99503,-1.1037 -1.67911,-1.44577 -0.68409,-0.34204 -1.5081,-0.51318 -2.47201,-0.51318" />
    <path
       inkscape:connector-curvature="0"
       id="path4308-3-4-8-4-9-3-6"
       style="font-style:normal;font-variant:normal;font-weight:normal;font-stretch:normal;font-size:206.80056763px;line-height:83.00001025%;font-family:'Droid Sans';-inkscape-font-specification:'Droid Sans Bold';text-align:end;letter-spacing:-11.29897022px;word-spacing:0px;text-anchor:end;fill:#333333;fill-opacity:1;stroke:none"
       d="m 394.32385,1021.7385 -3.75465,0 0,-20.9188 c -0.0933,0.3266 -0.20994,0.7153 -0.34982,1.1661 -0.12442,0.4353 -0.26433,0.8862 -0.41978,1.3525 -0.1555,0.451 -0.3032,0.8861 -0.44309,1.306 -0.13995,0.4199 -0.26434,0.7695 -0.37315,1.0495 l -6.15671,16.0447 -3.14831,0 -6.18004,-16.0447 c -0.0777,-0.2021 -0.18656,-0.4899 -0.3265,-0.8629 -0.12439,-0.3887 -0.2643,-0.8086 -0.41978,-1.2594 -0.15548,-0.4663 -0.30317,-0.9406 -0.44308,-1.4226 -0.13994,-0.4818 -0.26433,-0.925 -0.37313,-1.3292 l 0,20.9188 -3.77799,0 0,-25.60643 5.15392,0 6.22667,16.25473 c 0.20211,0.5286 0.38867,1.0573 0.55971,1.5859 0.171,0.513 0.32648,1.0028 0.46641,1.4691 0.15546,0.4665 0.28761,0.894 0.39646,1.2827 0.12436,0.3887 0.21765,0.7074 0.27984,0.9562 0.0933,-0.2642 0.19432,-0.583 0.30317,-0.9562 0.10883,-0.3887 0.2332,-0.8083 0.37313,-1.2594 0.15545,-0.4663 0.31872,-0.9483 0.48976,-1.4457 0.171,-0.5132 0.35756,-1.0262 0.55969,-1.5393 l 6.29665,-16.3478 5.06062,0 0,25.6062" />
    <path
       inkscape:connector-curvature="0"
       id="path4310-2-8-3-5-9-8-8"
       style="font-style:normal;font-variant:normal;font-weight:normal;font-stretch:normal;font-size:206.80056763px;line-height:83.00001025%;font-family:'Droid Sans';-inkscape-font-specification:'Droid Sans Bold';text-align:end;letter-spacing:-11.29897022px;word-spacing:0px;text-anchor:end;fill:#333333;fill-opacity:1;stroke:none"
       d="m 416.31226,1021.7385 -0.86286,-3.5447 -0.18657,0 c -0.51308,0.6996 -1.02614,1.3058 -1.53918,1.819 -0.51309,0.4975 -1.07278,0.9095 -1.6791,1.2359 -0.60636,0.3265 -1.28266,0.5676 -2.02892,0.7231 -0.74628,0.1554 -1.60916,0.2332 -2.58863,0.2332 -1.07276,0 -2.06001,-0.1556 -2.96174,-0.4665 -0.90176,-0.2954 -1.68688,-0.7541 -2.35542,-1.376 -0.65297,-0.6374 -1.16604,-1.4303 -1.53916,-2.3786 -0.37315,-0.964 -0.55972,-2.0989 -0.55972,-3.4049 0,-2.5498 0.89398,-4.5087 2.6819,-5.8769 1.80348,-1.3681 4.53979,-2.1143 8.20896,-2.2388 l 4.29104,-0.1633 0,-1.609 c 0,-1.0416 -0.11661,-1.9123 -0.34981,-2.6119 -0.21767,-0.6998 -0.54417,-1.2594 -0.97949,-1.6792 -0.41978,-0.4354 -0.94838,-0.74626 -1.58581,-0.93287 -0.62191,-0.18638 -1.33708,-0.27968 -2.14551,-0.27991 -1.29045,0 -2.49535,0.18661 -3.61476,0.55983 -1.10386,0.37325 -2.16883,0.82405 -3.19495,1.35265 l -1.49254,-3.19496 c 1.1505,-0.62196 2.43314,-1.15061 3.84795,-1.58596 1.4148,-0.43511 2.89955,-0.6529 4.4543,-0.6529 1.58579,0 2.95396,0.16328 4.10447,0.48985 1.16601,0.31086 2.12218,0.81619 2.86846,1.51574 0.7618,0.68409 1.32927,1.56263 1.70242,2.63513 0.37313,1.0728 0.55969,2.371 0.55971,3.8946 l 0,17.5374 -3.05504,0 m -7.78916,-2.9617 c 0.94836,0 1.82679,-0.1476 2.63524,-0.4432 0.80845,-0.2954 1.50808,-0.7384 2.0989,-1.3292 0.59078,-0.6064 1.0494,-1.3605 1.37592,-2.2621 0.34202,-0.9174 0.51304,-1.9902 0.51307,-3.2184 l 0,-2.3088 -3.33489,0.1633 c -1.39928,0.062 -2.5731,0.2178 -3.52146,0.4665 -0.94838,0.2487 -1.7102,0.5986 -2.28544,1.0494 -0.55971,0.4354 -0.96395,0.9717 -1.21268,1.6091 -0.24879,0.622 -0.37315,1.3294 -0.37315,2.1222 0,1.4303 0.37312,2.4798 1.1194,3.1484 0.76182,0.6686 1.75684,1.0028 2.98509,1.0028" />
    <path
       inkscape:connector-curvature="0"
       id="path4312-0-1-3-7-9-6-3"
       style="font-style:normal;font-variant:normal;font-weight:normal;font-stretch:normal;font-size:206.80056763px;line-height:83.00001025%;font-family:'Droid Sans';-inkscape-font-specification:'Droid Sans Bold';text-align:end;letter-spacing:-11.29897022px;word-spacing:0px;text-anchor:end;fill:#333333;fill-opacity:1;stroke:none"
       d="m 444.07447,1018.1472 10.30784,0 0,-22.0149 4.26771,0 0,25.6062 -33.3955,0 0,-25.6062 4.2444,0 0,22.0149 10.33115,0 0,-22.0149 4.2444,0 0,22.0149" />
    <path
       inkscape:connector-curvature="0"
       id="path4314-5-4-7-1-3-7-6"
       style="font-style:normal;font-variant:normal;font-weight:normal;font-stretch:normal;font-size:206.80056763px;line-height:83.00001025%;font-family:'Droid Sans';-inkscape-font-specification:'Droid Sans Bold';text-align:end;letter-spacing:-11.29897022px;word-spacing:0px;text-anchor:end;fill:#333333;fill-opacity:1;stroke:none"
       d="m 469.24354,996.1323 0,15.5782 -0.27984,5.8769 12.03356,-21.4551 5.43377,0 0,25.6062 -4.01119,0 0,-15.0886 0.25652,-6.32 -11.98691,21.4086 -5.4571,0 0,-25.6062 4.01119,0" />
    <path
       inkscape:connector-curvature="0"
       id="path4316-2-8-1-5-9-0-0"
       style="font-style:normal;font-variant:normal;font-weight:normal;font-stretch:normal;font-size:206.80056763px;line-height:83.00001025%;font-family:'Droid Sans';-inkscape-font-specification:'Droid Sans Bold';text-align:end;letter-spacing:-11.29897022px;word-spacing:0px;text-anchor:end;fill:#333333;fill-opacity:1;stroke:none"
       d="m 497.23444,996.1323 0,10.6109 12.70989,0 0,-10.6109 4.24438,0 0,25.6062 -4.24438,0 0,-11.404 -12.70989,0 0,11.404 -4.2444,0 0,-25.6062 4.2444,0" />
    <path
       inkscape:connector-curvature="0"
       id="path4318-2-5-6-2-7-3-5"
       style="font-style:normal;font-variant:normal;font-weight:normal;font-stretch:normal;font-size:206.80056763px;line-height:83.00001025%;font-family:'Droid Sans';-inkscape-font-specification:'Droid Sans Bold';text-align:end;letter-spacing:-11.29897022px;word-spacing:0px;text-anchor:end;fill:#333333;fill-opacity:1;stroke:none"
       d="m 524.99213,1006.6499 5.50374,0 c 3.296,0 5.73692,0.6062 7.32275,1.819 1.5858,1.2127 2.3787,3.0241 2.37873,5.4338 -3e-5,1.1971 -0.18659,2.2777 -0.55969,3.2417 -0.35761,0.9638 -0.93287,1.7878 -1.72575,2.4719 -0.77739,0.6841 -1.78795,1.2127 -3.03172,1.5859 -1.22825,0.3575 -2.72079,0.5363 -4.4776,0.5363 l -9.65487,0 0,-25.6062 4.24441,0 0,10.5176 m 23.41418,15.0886 -4.2444,0 0,-25.6062 4.2444,0 0,25.6062 m -23.41418,-11.5206 0,8.0226 5.10729,0 c 0.87062,0 1.66353,-0.062 2.37872,-0.1866 0.73071,-0.14 1.3526,-0.3654 1.86566,-0.6765 0.52861,-0.3263 0.9406,-0.7462 1.23601,-1.2591 0.29539,-0.5132 0.44309,-1.1428 0.44311,-1.889 -2e-5,-0.7619 -0.13217,-1.3993 -0.39645,-1.9125 -0.24879,-0.513 -0.6297,-0.925 -1.14273,-1.2358 -0.49752,-0.3111 -1.11943,-0.5287 -1.86567,-0.6532 -0.7463,-0.1397 -1.61694,-0.2097 -2.61193,-0.2097 l -5.01401,0" />
    <path
       inkscape:connector-curvature="0"
       id="path3247-6-7-4-0-5-5-2-2-1-2-8"
       d="m 40.533585,967.36929 c -21.40383,0 -38.0286237,16.12652 -38.3435977,36.36421 -0.438117,6.1327 1.072661,14.8856 6.4644393,22.7833 0.284303,0.4164 0.629832,0.8113 0.9377837,1.2201 -1.4477047,2.1862 -2.7832117,4.0551 -3.731782,5.1884 -0.455785,0.5443 -0.671126,0.7441 -0.915682,0.991 a 4.1244353,4.1244353 0 0 0 -2.478701,4.6054 c 0.196957,1.0883 1.683946,3.0142 3.201768,3.3615 1.5178463,0.3471 2.2408433,-0.063 2.7069293,-0.2658 0.9321717,-0.4053 1.1960587,-0.7072 1.5629967,-1.0252 0.7338527,-0.6363 1.4131777,-1.3762 2.2472867,-2.3728 0.95148,-1.1365 2.082363,-2.6666 3.293318,-4.4181 5.580998,4.4028 13.156459,7.5036 22.900428,7.7946 10.576811,0.3157 18.505741,-2.8139 23.715511,-6.1902 2.60489,-1.6883 4.54101,-3.426 5.87802,-4.8509 0.6685,-0.7125 1.18444,-1.3405 1.58644,-1.8973 0.20102,-0.2783 0.371,-0.5303 0.54671,-0.8381 0.0879,-0.1539 0.17749,-0.3155 0.28916,-0.5774 0.11166,-0.2617 0.35589,-0.4291 0.35589,-1.7061 a 4.1244353,4.1244353 0 0 0 -7.9196,-1.6589 c -0.15672,0.2134 -0.44378,0.576 -0.87374,1.0342 -0.90016,0.9596 -2.35154,2.2781 -4.34887,3.5726 -3.99467,2.589 -10.12836,5.132 -18.983694,4.8676 -8.680132,-0.2592 -14.56257,-2.8821 -18.754086,-6.542 2.071393,-3.631 4.236483,-7.9291 6.309262,-12.8306 0.432135,0.6984 0.925243,1.3716 1.572003,1.9654 1.943537,1.7846 4.637117,2.577 7.453656,2.6248 3.801322,0.065 6.895952,-2.0774 8.996329,-4.4941 1.2119,-1.3943 2.192,-2.9393 3.04026,-4.5241 0.6021,1.2499 1.32715,2.4716 2.26849,3.6026 2.05209,2.4656 5.44335,4.4274 9.30622,4.2763 3.83908,-0.1501 7.15517,-2.3093 9.11363,-5.0733 1.95844,-2.7641 2.91084,-6.0378 3.35919,-9.419 0.89596,-6.75697 -0.12354,-14.02367 -3.01502,-19.38778 -5.81759,-10.99497 -16.97647,-15.98771 -27.666973,-16.17986 a 4.1244353,4.1244353 0 0 0 -0.07398,0 z m -0.0379,8.24987 c 8.314627,0.15936 16.218987,3.7031 20.496627,11.80146 a 4.1244353,4.1244353 0 0 0 0.0175,0.0335 c 1.63057,3.01994 2.75945,9.45174 2.10338,14.39918 -0.32802,2.474 -1.07802,4.5563 -1.91303,5.7348 -0.83499,1.1783 -1.40329,1.549 -2.70603,1.5998 -1.27892,0.05 -1.76815,-0.2582 -2.64422,-1.3106 -0.87608,-1.0527 -1.7415,-2.9431 -2.3154,-5.0052 -1.14779,-4.12485 -1.23054,-8.56838 -1.23054,-8.56838 a 4.1244353,4.1244353 0 0 0 -8.17312,-0.73975 c 0,0 -0.93591,4.74447 -2.834573,9.30303 -0.949331,2.2793 -2.15643,4.4588 -3.319485,5.7969 -1.163055,1.3381 -1.931574,1.67 -2.630714,1.658 -1.521448,-0.026 -1.857069,-0.3069 -2.016311,-0.4531 -0.159265,-0.1464 -0.461698,-0.5585 -0.687454,-1.8063 -0.451536,-2.4955 -0.114991,-7.479 -0.107809,-13.47633 a 4.1244353,4.1244353 0 0 0 -8.117183,-1.03721 c -2.754252,10.65684 -6.554603,19.54234 -10.155597,26.33464 -3.172437,-5.6717 -4.119506,-12.083 -3.842755,-15.6716 a 4.1244353,4.1244353 0 0 0 0.01178,-0.2646 c 0.200467,-15.90551 12.690927,-28.30998 30.064908,-28.32823 z m 22.211607,48.59064 a 4.1244353,4.1244353 0 0 0 -0.10508,0.388 c 0.039,-0.167 0.063,-0.3134 0.10508,-0.388 z"
       style="color:#000000;font-style:normal;font-variant:normal;font-weight:normal;font-stretch:normal;font-size:medium;line-height:normal;font-family:sans-serif;text-indent:0;text-align:start;text-decoration:none;text-decoration-line:none;text-decoration-style:solid;text-decoration-color:#000000;letter-spacing:normal;word-spacing:normal;text-transform:none;direction:ltr;block-progression:tb;writing-mode:lr-tb;baseline-shift:baseline;text-anchor:start;white-space:normal;clip-rule:nonzero;display:inline;overflow:visible;visibility:visible;opacity:1;isolation:auto;mix-blend-mode:normal;color-interpolation:sRGB;color-interpolation-filters:linearRGB;solid-color:#000000;solid-opacity:1;fill:#b20000;fill-opacity:1;fill-rule:nonzero;stroke:none;stroke-width:35.71311951;stroke-linecap:round;stroke-linejoin:round;stroke-miterlimit:4;stroke-dasharray:none;stroke-dashoffset:0;stroke-opacity:1;color-rendering:auto;image-rendering:auto;shape-rendering:auto;text-rendering:auto;enable-background:accumulate" />
  </g>
</svg>
