<?xml version="1.0" encoding="UTF-8" standalone="no"?>
<!-- Created with Inkscape (http://www.inkscape.org/) -->

<svg
   xmlns:dc="http://purl.org/dc/elements/1.1/"
   xmlns:cc="http://creativecommons.org/ns#"
   xmlns:rdf="http://www.w3.org/1999/02/22-rdf-syntax-ns#"
   xmlns:svg="http://www.w3.org/2000/svg"
   xmlns="http://www.w3.org/2000/svg"
   xmlns:sodipodi="http://sodipodi.sourceforge.net/DTD/sodipodi-0.dtd"
   xmlns:inkscape="http://www.inkscape.org/namespaces/inkscape"
   width="280"
   height="100"
   viewBox="0 0 280 100"
   id="svg3345"
   version="1.1"
   inkscape:version="0.91 r13725"
   sodipodi:docname="veda-logo.svg">
  <defs
     id="defs3347" />
  <sodipodi:namedview
     id="base"
     pagecolor="#ffffff"
     bordercolor="#666666"
     borderopacity="1.0"
     inkscape:pageopacity="0.0"
     inkscape:pageshadow="2"
     inkscape:zoom="0.98994949"
     inkscape:cx="78.112407"
     inkscape:cy="-66.967911"
     inkscape:document-units="px"
     inkscape:current-layer="layer1"
     showgrid="false"
     units="px"
     inkscape:window-width="1920"
     inkscape:window-height="1035"
     inkscape:window-x="0"
     inkscape:window-y="24"
     inkscape:window-maximized="1" />
  <metadata
     id="metadata3350">
    <rdf:RDF>
      <cc:Work
         rdf:about="">
        <dc:format>image/svg+xml</dc:format>
        <dc:type
           rdf:resource="http://purl.org/dc/dcmitype/StillImage" />
        <dc:title></dc:title>
      </cc:Work>
    </rdf:RDF>
  </metadata>
  <g
     inkscape:label="Layer 1"
     inkscape:groupmode="layer"
     id="layer1"
     transform="translate(0,-952.36216)">
    <path
       inkscape:connector-curvature="0"
       id="path3571"
       style="font-style:italic;font-variant:normal;font-weight:500;font-stretch:normal;font-size:medium;line-height:125%;font-family:Ubuntu;-inkscape-font-specification:'Ubuntu Medium Italic';letter-spacing:0px;word-spacing:0px;fill:#333333;fill-opacity:1;stroke:none"
       d="m 259.67646,964.41231 q 3.63509,14.83397 6.54312,34.32194 2.90803,19.63165 3.78042,41.73745 l -18.02991,0 q -0.14544,-6.3989 -0.4362,-13.8164 -0.43619,-7.4165 -1.01782,-14.9786 -0.58163,-7.4165 -1.30868,-14.39701 -0.87239,-6.98052 -1.89021,-12.65312 -3.78053,4.94532 -8.14257,11.78018 -4.36215,6.98055 -8.43343,14.54265 -4.07129,7.7078 -7.41551,15.4156 -3.34433,7.7078 -5.37997,14.1067 l -18.32078,0 q 3.48966,-10.0353 8.7242,-20.6513 5.23453,-10.6159 11.34146,-20.65018 6.10692,-10.0343 12.65004,-19.051 6.39779,-9.0167 12.21386,-15.70691 l 15.12198,0 z" />
    <path
       inkscape:connector-curvature="0"
       id="path3573"
       style="font-style:italic;font-variant:normal;font-weight:500;font-stretch:normal;font-size:medium;line-height:125%;font-family:Ubuntu;-inkscape-font-specification:'Ubuntu Medium Italic';letter-spacing:0px;word-spacing:0px;fill:#333333;fill-opacity:1;stroke:none"
       d="m 205.54665,991.89839 q 0,9.74401 -3.05347,18.76071 -3.19889,9.1613 -9.01505,16.1419 -5.9615,7.1261 -14.2495,11.3432 -8.2879,4.218 -18.61154,4.218 -11.05069,0 -17.15762,-5.6716 -6.10693,-5.6716 -6.10693,-14.5427 0,-9.1623 4.50748,-14.8339 4.50758,-5.6716 11.77766,-8.87106 7.12475,-3.19945 16.28513,-4.3627 9.01506,-1.16425 18.32088,-1.45456 0.14533,-0.29132 0.14533,-0.58163 l 0,-1.45456 q 0,-13.23375 -16.72133,-13.23375 -9.88744,0 -19.77479,4.07239 l -1.45401,-14.25234 q 3.48965,-1.59922 9.88734,-3.19944 6.39779,-1.60023 14.54036,-1.60023 8.14256,0 13.95873,2.32751 5.81606,2.3265 9.59658,6.39889 3.63499,4.07238 5.37987,9.30701 1.74488,5.38129 1.74488,11.48886 z m -42.31229,36.06581 q 4.36205,0 8.2879,-1.7449 3.92595,-1.7448 6.97942,-4.7986 3.05346,-3.0548 5.37986,-7.2719 2.18108,-4.0713 3.1989,-8.871 -17.44839,0.5816 -25.30019,4.218 -7.99714,3.6354 -7.99714,10.9073 0,2.9081 2.18107,5.2346 2.03565,2.3265 7.27018,2.3265 z" />
    <path
       id="path3576"
       style="font-style:italic;font-variant:normal;font-weight:500;font-stretch:normal;font-size:medium;line-height:125%;font-family:Ubuntu;-inkscape-font-specification:'Ubuntu Medium Italic';letter-spacing:0px;word-spacing:0px;fill:#333333;fill-opacity:1;stroke:none"
       d="M 20.323611,1040.3116 Q 16.68855,1025.4779 13.780462,1005.9903 10.872414,986.35788 10,964.25269 l 18.029978,0 q 0.145403,6.39879 0.436208,13.81547 0.436206,7.41708 1.017817,14.97902 0.581609,7.41712 1.308621,14.39742 0.872415,6.9808 1.890271,12.6526 3.780462,-4.9449 8.142574,-11.7799 4.362073,-6.9804 8.43338,-14.54274 4.071267,-7.70769 7.415523,-15.41539 3.344299,-7.70769 5.37993,-14.10648 l 18.320787,0 q -3.489668,10.0346 -8.724194,20.65093 -5.234486,10.61622 -11.341421,20.65038 -6.106943,10.0346 -12.650091,19.0512 -6.397706,9.0167 -12.213842,15.7064 l -15.12193,0 z"
       inkscape:connector-curvature="0" />
    <path
       id="path3578"
       style="font-style:italic;font-variant:normal;font-weight:500;font-stretch:normal;font-size:medium;line-height:125%;font-family:Ubuntu;-inkscape-font-specification:'Ubuntu Medium Italic';letter-spacing:0px;word-spacing:0px;fill:#333333;fill-opacity:1;stroke:none"
       d="m 74.453418,1012.8254 q 0,-9.7436 3.053483,-18.75982 3.198854,-9.16196 9.014996,-16.14278 5.961491,-7.12606 14.249463,-11.3431 8.28798,-4.21754 18.61163,-4.21754 11.05062,0 17.15757,5.6718 6.10689,5.67141 6.10689,14.54265 0,9.16206 -4.50746,14.83377 -4.50752,5.67142 -11.77764,8.87092 -7.12476,3.1997 -16.28516,4.3629 -9.01498,1.1633 -18.32081,1.4543 -0.145401,0.291 -0.145401,0.5816 l 0,1.4543 q 0,13.2341 16.721351,13.2341 9.88744,0 19.77485,-4.0722 l 1.45402,14.2522 q -3.48969,1.5995 -9.8874,3.1991 -6.39775,1.5999 -14.54033,1.5999 -8.142564,0 -13.958706,-2.3269 -5.816089,-2.3269 -9.59659,-6.3987 -3.635059,-4.0721 -5.379887,-9.3077 -1.744869,-5.3807 -1.744869,-11.4888 z m 42.312292,-36.06585 q -4.36207,0 -8.28798,1.74488 -3.92586,1.74528 -6.97932,4.79916 -3.053478,3.05429 -5.379923,7.27143 -2.181033,4.07218 -3.198854,8.87124 17.448367,-0.58162 25.300137,-4.21743 7.99718,-3.63592 7.99718,-10.90724 0,-2.90863 -2.18109,-5.23553 -2.03563,-2.32651 -7.27015,-2.32651 z"
       inkscape:connector-curvature="0" />
    <path
       inkscape:connector-curvature="0"
       style="fill:#999999;fill-opacity:1;stroke:none"
       d="m 248.61953,1020.5156 a 9.4285385,9.4301558 0 0 1 -9.42855,9.4306 9.4285385,9.4301558 0 0 1 -9.42845,-9.4306 9.4285385,9.4301558 0 0 1 9.42845,-9.4296 9.4285385,9.4301558 0 0 1 9.42855,9.4296 z"
       id="path3201-2" />
  </g>
</svg>
