<?xml version="1.0" encoding="UTF-8" standalone="no"?>
<!-- Created with Inkscape (http://www.inkscape.org/) -->

<svg
   xmlns:dc="http://purl.org/dc/elements/1.1/"
   xmlns:cc="http://creativecommons.org/ns#"
   xmlns:rdf="http://www.w3.org/1999/02/22-rdf-syntax-ns#"
   xmlns:svg="http://www.w3.org/2000/svg"
   xmlns="http://www.w3.org/2000/svg"
   xmlns:sodipodi="http://sodipodi.sourceforge.net/DTD/sodipodi-0.dtd"
   xmlns:inkscape="http://www.inkscape.org/namespaces/inkscape"
   width="16"
   height="16"
   viewBox="0 0 16 16"
   id="svg4158"
   version="1.1"
   inkscape:version="0.91 r13725"
   sodipodi:docname="veda.svg"
   inkscape:export-filename="/repo/veda-site/files/site/veda-512.png"
   inkscape:export-xdpi="2880"
   inkscape:export-ydpi="2880">
  <defs
     id="defs4160" />
  <sodipodi:namedview
     id="base"
     pagecolor="#ffffff"
     bordercolor="#666666"
     borderopacity="1.0"
     inkscape:pageopacity="0.0"
     inkscape:pageshadow="2"
     inkscape:zoom="7.919596"
     inkscape:cx="-19.01935"
     inkscape:cy="0.19058648"
     inkscape:document-units="px"
     inkscape:current-layer="layer1"
     showgrid="false"
     units="px"
     inkscape:window-width="1920"
     inkscape:window-height="1035"
     inkscape:window-x="0"
     inkscape:window-y="24"
     inkscape:window-maximized="1" />
  <metadata
     id="metadata4163">
    <rdf:RDF>
      <cc:Work
         rdf:about="">
        <dc:format>image/svg+xml</dc:format>
        <dc:type
           rdf:resource="http://purl.org/dc/dcmitype/StillImage" />
        <dc:title></dc:title>
      </cc:Work>
    </rdf:RDF>
  </metadata>
  <g
     inkscape:label="Layer 1"
     inkscape:groupmode="layer"
     id="layer1"
     transform="translate(0,-1036.3622)">
    <path
       inkscape:connector-curvature="0"
       id="path3247-6-7-4-0-5-5-2-2-1-2-8"
       d="m 8.8403887,1036.3622 c -4.5876514,0 -8.15097452,3.4565 -8.21848634,7.7942 -0.0939047,1.3145 0.22991374,3.1906 1.38557454,4.8834 0.060939,0.09 0.134999,0.174 0.2010038,0.2616 -0.3102985,0.4685 -0.5965467,0.869 -0.7998613,1.112 -0.097693,0.1166 -0.1438487,0.1595 -0.1962679,0.2124 a 0.8840228,0.8840228 0 0 0 -0.5312792,0.987 c 0.0422178,0.2334 0.3609348,0.6462 0.6862605,0.7206 0.3253333,0.074 0.4802976,-0.013 0.580198,-0.057 0.1997997,-0.087 0.256361,-0.1515 0.3350102,-0.2197 0.157292,-0.1364 0.3028961,-0.2951 0.4816774,-0.5085 0.2039381,-0.2437 0.4463309,-0.5716 0.7058833,-0.947 1.1962193,0.9436 2.819928,1.6083 4.9084299,1.6706 2.2670124,0.067 3.9664804,-0.6031 5.0831324,-1.3268 0.558326,-0.3618 0.973309,-0.7343 1.259882,-1.0397 0.143284,-0.1527 0.253871,-0.2872 0.340035,-0.4067 0.04309,-0.06 0.07952,-0.1135 0.11718,-0.1796 0.01884,-0.033 0.03805,-0.067 0.06198,-0.1237 0.02393,-0.056 0.07629,-0.092 0.07629,-0.3657 a 0.8840228,0.8840228 0 0 0 -1.69747,-0.3557 c -0.03359,0.045 -0.09512,0.1235 -0.187276,0.2218 -0.192938,0.2057 -0.504025,0.4883 -0.932128,0.7658 -0.856208,0.5548 -2.170891,1.0998 -4.0689237,1.0433 -1.8604829,-0.056 -3.1213106,-0.6178 -4.0197116,-1.4022 0.4439766,-0.7784 0.9080374,-1.6996 1.352313,-2.7501 0.092624,0.1497 0.1983136,0.2939 0.3369394,0.4212 0.4165738,0.3825 0.9939109,0.5523 1.5976021,0.5626 0.814767,0.014 1.4780628,-0.4451 1.9282536,-0.9633 0.2597563,-0.2988 0.4698292,-0.6299 0.6516432,-0.9697 0.129053,0.268 0.284459,0.5299 0.486224,0.7723 0.43984,0.5284 1.166715,0.9489 1.994675,0.9165 0.82286,-0.032 1.533623,-0.495 1.953396,-1.0874 0.419768,-0.5924 0.623904,-1.2942 0.720001,-2.0188 0.192039,-1.4483 -0.02647,-3.0058 -0.646233,-4.1555 -1.246929,-2.3566 -3.6387,-3.4269 -5.9300787,-3.468 a 0.8840228,0.8840228 0 0 0 -0.015866,0 z m -0.00816,1.7684 c 1.7821393,0.034 3.4763443,0.7937 4.3932053,2.5294 a 0.8840228,0.8840228 0 0 0 0.0038,0.011 c 0.349493,0.6472 0.591454,2.0257 0.450833,3.0861 -0.07031,0.5305 -0.23106,0.9767 -0.410034,1.2294 -0.17897,0.2524 -0.300779,0.3319 -0.580004,0.3428 -0.274123,0.011 -0.378983,-0.055 -0.566758,-0.281 -0.187777,-0.2256 -0.373269,-0.6307 -0.496278,-1.0727 -0.246015,-0.8842 -0.26375,-1.8366 -0.26375,-1.8366 a 0.8840228,0.8840228 0 0 0 -1.7518112,-0.1585 c 0,0 -0.2006006,1.0169 -0.607555,1.994 -0.2034796,0.4885 -0.4622044,0.9556 -0.7114923,1.2425 -0.2492859,0.2867 -0.4140088,0.3579 -0.5638613,0.3553 -0.3261047,-0.011 -0.3980405,-0.065 -0.4321712,-0.097 -0.034143,-0.031 -0.09896,-0.1198 -0.1473492,-0.3872 -0.09678,-0.5349 -0.024644,-1.603 -0.023106,-2.8884 a 0.8840228,0.8840228 0 0 0 -1.7398193,-0.2223 c -0.59034,2.2842 -1.4048992,4.1885 -2.1767296,5.6444 -0.6799721,-1.2157 -0.8829649,-2.5899 -0.823647,-3.3589 a 0.8840228,0.8840228 0 0 0 0.00256,-0.057 c 0.042967,-3.4091 2.7201454,-6.0678 6.4440502,-6.0718 z m 4.7607893,10.4146 a 0.8840228,0.8840228 0 0 0 -0.02253,0.083 c 0.0083,-0.036 0.0135,-0.067 0.02253,-0.083 z"
       style="color:#000000;font-style:normal;font-variant:normal;font-weight:normal;font-stretch:normal;font-size:medium;line-height:normal;font-family:sans-serif;text-indent:0;text-align:start;text-decoration:none;text-decoration-line:none;text-decoration-style:solid;text-decoration-color:#000000;letter-spacing:normal;word-spacing:normal;text-transform:none;direction:ltr;block-progression:tb;writing-mode:lr-tb;baseline-shift:baseline;text-anchor:start;white-space:normal;clip-rule:nonzero;display:inline;overflow:visible;visibility:visible;opacity:1;isolation:auto;mix-blend-mode:normal;color-interpolation:sRGB;color-interpolation-filters:linearRGB;solid-color:#000000;solid-opacity:1;fill:#b20000;fill-opacity:1;fill-rule:nonzero;stroke:none;stroke-width:35.71311951;stroke-linecap:round;stroke-linejoin:round;stroke-miterlimit:4;stroke-dasharray:none;stroke-dashoffset:0;stroke-opacity:1;color-rendering:auto;image-rendering:auto;shape-rendering:auto;text-rendering:auto;enable-background:accumulate" />
  </g>
</svg>
