<?xml version="1.0" encoding="UTF-8" standalone="no"?>
<svg
   xmlns:dc="http://purl.org/dc/elements/1.1/"
   xmlns:cc="http://creativecommons.org/ns#"
   xmlns:rdf="http://www.w3.org/1999/02/22-rdf-syntax-ns#"
   xmlns:svg="http://www.w3.org/2000/svg"
   xmlns="http://www.w3.org/2000/svg"
   xmlns:sodipodi="http://sodipodi.sourceforge.net/DTD/sodipodi-0.dtd"
   xmlns:inkscape="http://www.inkscape.org/namespaces/inkscape"
   enable-background="new 0 0 128 128"
   height="128px"
   id="Layer_1"
   version="1.1"
   viewBox="0 0 128 128"
   width="128px"
   xml:space="preserve"
   inkscape:version="0.91 r13725"
   sodipodi:docname="user.svg"><metadata
     id="metadata13"><rdf:RDF><cc:Work
         rdf:about=""><dc:format>image/svg+xml</dc:format><dc:type
           rdf:resource="http://purl.org/dc/dcmitype/StillImage" /></cc:Work></rdf:RDF></metadata><defs
     id="defs11" /><sodipodi:namedview
     pagecolor="#ffffff"
     bordercolor="#666666"
     borderopacity="1"
     objecttolerance="10"
     gridtolerance="10"
     guidetolerance="10"
     inkscape:pageopacity="0"
     inkscape:pageshadow="2"
     inkscape:window-width="1920"
     inkscape:window-height="1035"
     id="namedview9"
     showgrid="false"
     inkscape:zoom="1.84375"
     inkscape:cx="82.188068"
     inkscape:cy="-61.392918"
     inkscape:window-x="0"
     inkscape:window-y="24"
     inkscape:window-maximized="1"
     inkscape:current-layer="Layer_1" /><path
     style="fill:#cccccc"
     d="m 63.3,8.3 c -11.9,0 -24.4,6.6 -24.4,18.8 0,4 0.9,14.5 0.9,14.5 0,0 -0.2,0 -0.4,0 -1,0 -3.5,0.5 -3.3,5.1 0.2,5.8 3.2,10.5 4.7,11.1 0.3,0.1 0.6,0.2 0.9,0.2 0.8,0 1.1,-0.6 1.1,-0.6 0,0 3.5,9.2 6.3,13.1 3,4.1 8.4,6.6 15.5,6.6 6.5,0 11,-2.1 14.9,-6.6 3.6,-4.1 6.9,-13.1 6.9,-13.1 0,0 0.4,0.6 1.2,0.6 0.3,0 0.5,0 0.9,-0.2 1.5,-0.6 4.4,-5.3 4.6,-11.1 0.1,-4.6 -2.3,-5.1 -3.4,-5.1 -0.3,0 -0.4,0 -0.4,0 0,0 0.5,-10.5 0.9,-14.5 C 90.6,23.2 85.9,15.2 80.5,14.8 76.6,10.4 70.1,8.3 63.3,8.3 l 0,0 z"
     id="path4146" /><path
     style="fill:#cccccc"
     d="M 81,79 C 79.653075,82.398131 73.901493,85.342209 64.826879,85.342209 53.677174,85.342209 49.5,82.1 48,79.1 c 0,0 -21.7,5.4 -27.9,7 -6.2,1.7 -7.6,15.8 -7.6,25.8 0,0 13.6,8 52,8 38.4,0 52,-8 52,-8 0,-10 -1.4,-24.2 -7.6,-25.8 C 102.7,84.5 81,79 81,79 Z"
     id="path7"
     inkscape:connector-curvature="0"
     sodipodi:nodetypes="cccccscsc" /></svg>